<?xml version="1.0" standalone="no"?>
<!DOCTYPE svg PUBLIC "-//W3C//DTD SVG 20010904//EN"
 "http://www.w3.org/TR/2001/REC-SVG-20010904/DTD/svg10.dtd">
<svg version="1.0" xmlns="http://www.w3.org/2000/svg"
 width="740.000000pt" height="453.000000pt" viewBox="0 0 740.000000 453.000000"
 preserveAspectRatio="xMidYMid meet">
<metadata>
Created by potrace 1.16, written by Peter Selinger 2001-2019
</metadata>
<g transform="translate(0.000000,453.000000) scale(0.100000,-0.100000)"
fill="#000000" stroke="none">
<path d="M2423 3140 c-89 -19 -166 -75 -208 -152 -25 -45 -30 -64 -30 -123 1
-109 51 -186 159 -243 46 -24 61 -27 156 -27 90 0 111 3 147 23 66 35 110 78
139 138 23 48 26 63 22 127 -5 81 -22 121 -75 173 -70 71 -203 107 -310 84z
m159 -136 c100 -51 109 -198 15 -267 -19 -15 -47 -22 -90 -25 -53 -3 -67 0
-97 20 -75 51 -99 129 -64 204 38 80 149 111 236 68z"/>
<path d="M4365 3057 l-210 -93 -137 -200 c-75 -109 -137 -206 -138 -214 0 -8
30 -104 66 -212 51 -153 69 -198 82 -197 9 0 59 8 111 17 l94 17 94 135 c52
74 98 139 102 143 4 4 69 -79 144 -185 75 -106 191 -269 257 -363 67 -93 167
-236 223 -317 56 -81 106 -147 111 -148 8 0 134 90 330 236 l69 52 28 98 c29
98 29 102 29 370 l0 272 -177 137 c-125 96 -209 170 -282 248 -57 62 -142 151
-188 200 l-84 87 -83 0 c-46 0 -116 2 -157 5 l-74 5 -210 -93z"/>
<path d="M1790 3085 l0 -54 67 -3 66 -3 -2 -212 -2 -213 75 0 76 0 0 215 0
215 70 0 70 0 0 55 0 55 -210 0 -210 0 0 -55z"/>
<path d="M1790 2493 l0 -53 65 0 65 0 2 -217 3 -218 70 0 70 0 3 218 2 217 70
0 70 0 0 50 0 49 -210 3 -210 3 0 -52z"/>
<path d="M2245 2272 l0 -267 70 0 70 0 3 108 3 107 94 0 94 0 3 -107 3 -108
73 -3 72 -3 0 271 0 270 -70 0 -69 0 -3 -107 -3 -108 -97 -3 -98 -3 0 111 0
110 -72 0 -73 0 0 -268z"/>
<path d="M2780 2270 l0 -270 170 0 170 0 0 55 0 55 -95 0 -95 0 0 55 0 55 95
0 95 0 0 50 0 50 -95 0 -95 0 0 61 0 60 95 -3 95 -3 0 53 0 52 -170 0 -170 0
0 -270z"/>
<path d="M1840 1680 l0 -270 70 0 70 0 2 128 c1 70 1 137 0 150 0 12 2 22 6
21 4 0 53 -67 110 -150 l103 -149 75 0 74 0 0 270 0 270 -75 0 -74 0 -3 -147
-3 -147 -104 147 -104 147 -74 0 -73 0 0 -270z"/>
<path d="M2400 1680 l0 -270 171 0 170 0 -3 53 -3 52 -95 1 -95 2 0 53 0 54
98 3 97 3 0 49 0 49 -97 3 -98 3 -3 53 -3 52 100 0 101 0 0 55 0 55 -170 0
-170 0 0 -270z"/>
<path d="M2784 1933 c3 -10 35 -124 71 -253 36 -129 68 -243 71 -252 4 -15 18
-18 79 -18 73 0 75 1 82 28 54 216 71 275 76 262 7 -16 67 -273 67 -284 0 -3
35 -6 78 -6 l77 0 78 263 c42 144 77 265 77 270 0 4 -33 7 -74 7 l-73 0 -39
-150 c-21 -82 -41 -150 -44 -150 -3 0 -21 67 -40 148 l-35 147 -72 3 -71 3
-16 -53 c-8 -29 -25 -95 -38 -145 -12 -51 -25 -93 -29 -93 -4 0 -22 64 -40
143 l-34 142 -78 3 c-72 3 -78 1 -73 -15z"/>
</g>
</svg>
